<?xml version="1.0" encoding="utf-8"?>
<!-- Generator: Adobe Illustrator 23.1.0, SVG Export Plug-In . SVG Version: 6.00 Build 0)  -->
<svg version="1.1" id="Layer_1" xmlns="http://www.w3.org/2000/svg" xmlns:xlink="http://www.w3.org/1999/xlink" x="0px" y="0px"
	 viewBox="0 0 853 805" style="enable-background:new 0 0 853 805;" xml:space="preserve">
<style type="text/css">
	.st0{fill:#1D2A56;}
</style>
<g>
	<polygon class="st0" points="548.5,402.5 368.5,298.58 368.5,506.42 	"/>
	<g>
		<path class="st0" d="M426.5,78.5c43.76,0,86.19,8.56,126.1,25.44c38.58,16.32,73.23,39.68,103,69.45s53.14,64.43,69.45,103
			c16.88,39.91,25.44,82.34,25.44,126.1s-8.56,86.19-25.44,126.1c-16.32,38.58-39.68,73.23-69.45,103s-64.42,53.14-103,69.45
			c-39.91,16.88-82.34,25.44-126.1,25.44s-86.19-8.56-126.1-25.44c-38.58-16.32-73.23-39.68-103-69.45s-53.14-64.42-69.45-103
			c-16.88-39.91-25.44-82.34-25.44-126.1s8.56-86.19,25.44-126.1c16.32-38.58,39.68-73.23,69.45-103s64.42-53.14,103-69.45
			C340.31,87.06,382.74,78.5,426.5,78.5 M426.5,32.5c-204.35,0-370,165.65-370,370s165.65,370,370,370s370-165.65,370-370
			S630.85,32.5,426.5,32.5L426.5,32.5z"/>
	</g>
</g>
</svg>
